<svg width="63" height="624" viewBox="0 0 63 624" fill="none" xmlns="http://www.w3.org/2000/svg">
<path d="M47.2275 20.7764V34.2529H30.1377V32.5195C30.1377 28.3203 30.862 25.3092 32.3105 23.4863C33.7591 21.6797 36.2249 20.7764 39.708 20.7764H47.2275ZM14 15.8936C14 13.2568 14.9766 10.9131 16.9297 8.8623C18.6549 7.05566 20.9499 5.63965 23.8145 4.61426C26.4512 3.67025 29.0635 3.19824 31.6514 3.19824C35.5413 3.19824 39 4.15853 42.0273 6.0791C44.1758 7.44629 45.6895 9.24479 46.5684 11.4746C47.0078 12.6139 47.2275 13.8835 47.2275 15.2832V17.1631H14V15.8936ZM20.3721 20.7764V32.9834H19.6885C18.1748 32.9834 16.8971 32.4382 15.8555 31.3477C14.6185 30.013 14 28.1169 14 25.6592V20.7764H20.3721ZM51.3779 48.1006V61.2354H14V48.1006H51.3779ZM38.9023 65.7275V67.9248C38.9023 73.9144 36.8678 77.487 32.7988 78.6426C31.4805 79.0332 29.9587 79.2285 28.2334 79.2285H14V65.7275H38.9023ZM31.9688 111.631C36.5911 111.631 38.9023 114.618 38.9023 120.591V124.009H26.4512V111.631H31.9688ZM38.9023 94.541V108.115H14V94.541H38.9023ZM45.5918 145.718C45.5918 140.33 47.2764 137.637 50.6455 137.637C52.3708 137.637 53.6077 138.28 54.3564 139.565C55.1214 140.851 55.5039 142.812 55.5039 145.449C55.5039 148.086 55.1214 150.031 54.3564 151.284C53.6077 152.537 52.3626 153.164 50.6211 153.164C48.8958 153.164 47.6263 152.578 46.8125 151.406C45.9987 150.251 45.5918 148.354 45.5918 145.718ZM38.8779 139.004V152.139H14V139.004H38.8779ZM29.5273 168.94C29.7227 168.892 29.9342 168.851 30.1621 168.818L30.8457 168.721C31.334 168.656 31.9036 168.623 32.5547 168.623C33.222 168.623 33.987 168.77 34.8496 169.062C35.7122 169.372 36.4609 169.868 37.0957 170.552C38.4629 172.017 39.1465 174.279 39.1465 177.339L23.2041 195.479C22.6182 195.641 21.8369 195.723 20.8604 195.723C19.9001 195.723 18.9805 195.56 18.1016 195.234C17.2389 194.909 16.4902 194.388 15.8555 193.672C14.4557 192.142 13.7559 189.912 13.7559 186.982L29.5273 169.111V168.94ZM38.9023 195.894C38.1536 196.382 37.1283 196.626 35.8262 196.626C33.4173 196.626 31.6188 195.723 30.4307 193.916L38.9023 184.126V195.894ZM14 168.232C14.7487 167.744 15.7741 167.5 17.0762 167.5C19.4688 167.5 21.2591 168.395 22.4473 170.186L14 180V168.232ZM14 223.56C14 215.503 17.6784 211.475 25.0352 211.475H38.7559L45.5186 221.802V225.464H14V223.56ZM38.9023 229.004V240.698H30.7236L30.7236 229.004H38.9023ZM24.4248 229.028L24.4248 242.578H22.2764C19.5094 242.578 17.4668 241.732 16.1484 240.039C14.7161 238.2 14 235.229 14 231.128V229.028H24.4248ZM38.9023 273.955V275.835C38.9023 279.839 37.6654 282.915 35.1914 285.063C32.9453 287 29.9668 287.969 26.2559 287.969C22.4798 287.969 19.5176 286.895 17.3691 284.746C15.123 282.5 14 279.326 14 275.225V273.955H38.9023ZM26.1582 255.986C27.9486 255.986 29.6087 256.222 31.1387 256.694C32.6849 257.166 34.0358 257.899 35.1914 258.892C37.6654 261.04 38.9023 264.116 38.9023 268.12V270H14V268.73C14 264.629 15.123 261.455 17.3691 259.209C19.5176 257.061 22.4473 255.986 26.1582 255.986ZM38.9023 318.467V320.347C38.9023 324.351 37.6654 327.427 35.1914 329.575C32.9453 331.512 29.9668 332.48 26.2559 332.48C22.4798 332.48 19.5176 331.406 17.3691 329.258C15.123 327.012 14 323.838 14 319.736V318.467H38.9023ZM38.9023 301.377V314.512H5.69922V301.377H38.9023ZM51.3779 346.304V359.438H14V346.304H51.3779ZM38.9023 363.931V366.128C38.9023 372.118 36.8678 375.69 32.7988 376.846C31.4805 377.236 29.9587 377.432 28.2334 377.432H14V363.931H38.9023ZM38.9023 408.882V410.493C38.9023 416.646 36.819 420.397 32.6523 421.748C31.2689 422.188 29.6657 422.407 27.8428 422.407H25.1572V408.882H38.9023ZM26.1582 391.255C27.9486 391.255 29.6087 391.491 31.1387 391.963C32.6849 392.435 34.0358 393.167 35.1914 394.16C37.6654 396.309 38.9023 399.385 38.9023 403.389V405.269H14V403.999C14 399.897 15.123 396.724 17.3691 394.478C19.5176 392.329 22.4473 391.255 26.1582 391.255ZM20.3721 408.882V421.089H19.6885C18.1748 421.089 16.8971 420.544 15.8555 419.453C14.6185 418.118 14 416.222 14 413.765V408.882H20.3721ZM31.9687 454.785C36.5911 454.785 38.9023 457.772 38.9023 463.745V467.163H26.4512V454.785H31.9687ZM38.9023 437.695V451.27H14V437.695H38.9023ZM47.2275 531.284V544.834H37.999V542.295C37.999 537.884 38.6908 534.873 40.0742 533.262C41.2135 531.943 43.0527 531.284 45.5918 531.284H47.2275ZM47.2275 513.926V527.061H33.8486V536.851H27.4766V527.061H14.0488V513.926H47.2275ZM16.3682 531.26C19.7373 531.26 22.0241 533.213 23.2285 537.119C23.6842 538.617 23.9121 540.545 23.9121 542.905V544.834H14V531.26H16.3682ZM14 566.348C14 560.96 15.6846 558.267 19.0537 558.267C20.779 558.267 22.016 558.91 22.7646 560.195C23.5296 561.481 23.9121 563.442 23.9121 566.079C23.9121 568.716 23.5296 570.661 22.7646 571.914C22.016 573.167 20.7708 573.794 19.0293 573.794C17.304 573.794 16.0345 573.208 15.2207 572.036C14.4069 570.881 14 568.984 14 566.348Z" fill="#618FCA"/>
</svg>
