<svg width="51" height="571" viewBox="0 0 51 571" fill="none" xmlns="http://www.w3.org/2000/svg">
<path d="M42.2275 17.7764V31.2529H25.1377V29.5195C25.1377 25.3203 25.862 22.3092 27.3105 20.4863C28.7591 18.6797 31.2249 17.7764 34.708 17.7764H42.2275ZM9 12.8936C9 10.2568 9.97656 7.91309 11.9297 5.8623C13.6549 4.05566 15.9499 2.63965 18.8145 1.61426C21.4512 0.670247 24.0635 0.198242 26.6514 0.198242C30.5413 0.198242 34 1.15853 37.0273 3.0791C39.1758 4.44629 40.6895 6.24479 41.5684 8.47461C42.0078 9.61393 42.2275 10.8835 42.2275 12.2832V14.1631H9V12.8936ZM15.3721 17.7764V29.9834H14.6885C13.1748 29.9834 11.8971 29.4382 10.8555 28.3477C9.61849 27.013 9 25.1169 9 22.6592V17.7764H15.3721ZM46.3779 45.1006V58.2354H9V45.1006H46.3779ZM33.9023 62.7275V64.9248C33.9023 70.9144 31.8678 74.487 27.7988 75.6426C26.4805 76.0332 24.9587 76.2285 23.2334 76.2285H9V62.7275H33.9023ZM26.9687 108.631C31.5911 108.631 33.9023 111.618 33.9023 117.591V121.009H21.4512V108.631H26.9687ZM33.9023 91.541V105.115H9V91.541H33.9023ZM40.5918 142.718C40.5918 137.33 42.2764 134.637 45.6455 134.637C47.3708 134.637 48.6077 135.28 49.3564 136.565C50.1214 137.851 50.5039 139.812 50.5039 142.449C50.5039 145.086 50.1214 147.031 49.3564 148.284C48.6077 149.537 47.3626 150.164 45.6211 150.164C43.8958 150.164 42.6263 149.578 41.8125 148.406C40.9987 147.251 40.5918 145.354 40.5918 142.718ZM33.8779 136.004V149.139H9V136.004H33.8779ZM24.5273 165.94C24.7227 165.892 24.9342 165.851 25.1621 165.818L25.8457 165.721C26.334 165.656 26.9036 165.623 27.5547 165.623C28.222 165.623 28.987 165.77 29.8496 166.062C30.7122 166.372 31.4609 166.868 32.0957 167.552C33.4629 169.017 34.1465 171.279 34.1465 174.339L18.2041 192.479C17.6182 192.641 16.8369 192.723 15.8604 192.723C14.9001 192.723 13.9805 192.56 13.1016 192.234C12.2389 191.909 11.4902 191.388 10.8555 190.672C9.45573 189.142 8.75586 186.912 8.75586 183.982L24.5273 166.111V165.94ZM33.9023 192.894C33.1536 193.382 32.1283 193.626 30.8262 193.626C28.4173 193.626 26.6188 192.723 25.4307 190.916L33.9023 181.126V192.894ZM9 165.232C9.7487 164.744 10.7741 164.5 12.0762 164.5C14.4688 164.5 16.2591 165.395 17.4473 167.186L9 177V165.232ZM9 220.56C9 212.503 12.6784 208.475 20.0352 208.475H33.7559L40.5186 218.802V222.464H9V220.56ZM33.9023 226.004V237.698H25.7236V226.004H33.9023ZM19.4248 226.028V239.578H17.2764C14.5094 239.578 12.4668 238.732 11.1484 237.039C9.71615 235.2 9 232.229 9 228.128V226.028H19.4248ZM33.9023 270.955V272.835C33.9023 276.839 32.6654 279.915 30.1914 282.063C27.9453 284 24.9668 284.969 21.2559 284.969C17.4798 284.969 14.5176 283.895 12.3691 281.746C10.123 279.5 9 276.326 9 272.225V270.955H33.9023ZM21.1582 252.986C22.9486 252.986 24.6087 253.222 26.1387 253.694C27.6849 254.166 29.0358 254.899 30.1914 255.892C32.6654 258.04 33.9023 261.116 33.9023 265.12V267H9V265.73C9 261.629 10.123 258.455 12.3691 256.209C14.5176 254.061 17.4473 252.986 21.1582 252.986ZM33.9023 315.467V317.347C33.9023 321.351 32.6654 324.427 30.1914 326.575C27.9453 328.512 24.9668 329.48 21.2559 329.48C17.4798 329.48 14.5176 328.406 12.3691 326.258C10.123 324.012 9 320.838 9 316.736V315.467H33.9023ZM33.9023 298.377L33.9023 311.512H0.699219V298.377H33.9023ZM46.3779 343.304V356.438H9V343.304H46.3779ZM33.9023 360.931V363.128C33.9023 369.118 31.8678 372.69 27.7988 373.846C26.4805 374.236 24.9587 374.432 23.2334 374.432H9V360.931H33.9023ZM33.9023 405.882V407.493C33.9023 413.646 31.819 417.397 27.6523 418.748C26.2689 419.188 24.6657 419.407 22.8428 419.407H20.1572V405.882H33.9023ZM21.1582 388.255C22.9486 388.255 24.6087 388.491 26.1387 388.963C27.6849 389.435 29.0358 390.167 30.1914 391.16C32.6654 393.309 33.9023 396.385 33.9023 400.389V402.269H9V400.999C9 396.897 10.123 393.724 12.3691 391.478C14.5176 389.329 17.4473 388.255 21.1582 388.255ZM15.3721 405.882V418.089H14.6885C13.1748 418.089 11.8971 417.544 10.8555 416.453C9.61849 415.118 9 413.222 9 410.765V405.882H15.3721ZM26.9687 451.785C31.5911 451.785 33.9023 454.772 33.9023 460.745V464.163H21.4512V451.785H26.9687ZM33.9023 434.695V448.27H9V434.695H33.9023ZM42.2275 528.284V541.834H32.999V539.295C32.999 534.884 33.6908 531.873 35.0742 530.262C36.2135 528.943 38.0527 528.284 40.5918 528.284H42.2275ZM42.2275 510.926V524.061H28.8486V533.851H22.4766V524.061H9.04883V510.926H42.2275ZM11.3682 528.26C14.7373 528.26 17.0241 530.213 18.2285 534.119C18.6842 535.617 18.9121 537.545 18.9121 539.905V541.834H9V528.26H11.3682ZM9 563.348C9 557.96 10.6846 555.267 14.0537 555.267C15.779 555.267 17.016 555.91 17.7646 557.195C18.5296 558.481 18.9121 560.442 18.9121 563.079C18.9121 565.716 18.5296 567.661 17.7646 568.914C17.016 570.167 15.7708 570.794 14.0293 570.794C12.304 570.794 11.0345 570.208 10.2207 569.036C9.4069 567.881 9 565.984 9 563.348Z" fill="#618FCA"/>
</svg>
